<?xml version="1.0" encoding="UTF-8"?>
<svg width="700pt" height="700pt" version="1.1" viewBox="0 0 700 700" xmlns="http://www.w3.org/2000/svg" xmlns:xlink="http://www.w3.org/1999/xlink">
 <defs>
  <symbol id="x" overflow="visible">
   <path d="m15.016-0.89062c-0.78125 0.39844-1.5938 0.69531-2.4375 0.89062-0.83594 0.20703-1.7031 0.3125-2.6094 0.3125-2.7188 0-4.875-0.75781-6.4688-2.2812-1.5938-1.5195-2.3906-3.582-2.3906-6.1875 0-2.6016 0.79688-4.6641 2.3906-6.1875 1.5938-1.5195 3.75-2.2812 6.4688-2.2812 0.90625 0 1.7734 0.10547 2.6094 0.3125 0.84375 0.19922 1.6562 0.49609 2.4375 0.89062v3.3906c-0.78125-0.53125-1.5547-0.92188-2.3125-1.1719-0.76172-0.25-1.5586-0.375-2.3906-0.375-1.5117 0-2.6992 0.48438-3.5625 1.4531-0.85547 0.96094-1.2812 2.2812-1.2812 3.9688s0.42578 3.0156 1.2812 3.9844c0.86328 0.96094 2.0508 1.4375 3.5625 1.4375 0.83203 0 1.6289-0.125 2.3906-0.375 0.75781-0.25 1.5312-0.64062 2.3125-1.1719z"/>
  </symbol>
  <symbol id="c" overflow="visible">
   <path d="m10.984-8.9219c-0.34375-0.15625-0.6875-0.26953-1.0312-0.34375-0.33594-0.082031-0.67188-0.125-1.0156-0.125-1.0117 0-1.7891 0.32422-2.3281 0.96875-0.54297 0.64844-0.8125 1.5742-0.8125 2.7812v5.6406h-3.9219v-12.25h3.9219v2.0156c0.5-0.80078 1.0781-1.3828 1.7344-1.75 0.65625-0.375 1.4375-0.5625 2.3438-0.5625 0.13281 0 0.27344 0.007813 0.42188 0.015625 0.15625 0.011719 0.37891 0.03125 0.67188 0.0625z"/>
  </symbol>
  <symbol id="a" overflow="visible">
   <path d="m14.109-6.1562v1.1094h-9.1562c0.09375 0.91797 0.42578 1.6094 1 2.0781 0.57031 0.46094 1.3672 0.6875 2.3906 0.6875 0.82031 0 1.6641-0.11719 2.5312-0.35938 0.86328-0.25 1.75-0.625 2.6562-1.125v3.0156c-0.92969 0.35547-1.8555 0.62109-2.7812 0.79688-0.92969 0.17578-1.8555 0.26562-2.7812 0.26562-2.2109 0-3.9297-0.5625-5.1562-1.6875-1.2305-1.125-1.8438-2.7031-1.8438-4.7344 0-2 0.59766-3.5703 1.7969-4.7188 1.207-1.1445 2.8672-1.7188 4.9844-1.7188 1.9258 0 3.4688 0.58594 4.625 1.75 1.1562 1.1562 1.7344 2.7031 1.7344 4.6406zm-4.0156-1.3125c0-0.73828-0.21875-1.332-0.65625-1.7812-0.4375-0.45703-1.0078-0.6875-1.7031-0.6875-0.76172 0-1.3828 0.21484-1.8594 0.64062-0.46875 0.41797-0.76172 1.0273-0.875 1.8281z"/>
  </symbol>
  <symbol id="d" overflow="visible">
   <path d="m7.375-5.5156c-0.8125 0-1.4297 0.14062-1.8438 0.42188-0.41797 0.27344-0.625 0.67969-0.625 1.2188 0 0.5 0.16406 0.89062 0.5 1.1719 0.33203 0.28125 0.79688 0.42188 1.3906 0.42188 0.73828 0 1.3594-0.26562 1.8594-0.79688s0.75-1.1914 0.75-1.9844v-0.45312zm5.9844-1.4688v6.9844h-3.9531v-1.8125c-0.52344 0.74219-1.1094 1.2812-1.7656 1.625-0.65625 0.33203-1.4609 0.5-2.4062 0.5-1.2617 0-2.2891-0.36719-3.0781-1.1094-0.79297-0.73828-1.1875-1.6953-1.1875-2.875 0-1.4375 0.48828-2.4883 1.4688-3.1562 0.98828-0.67578 2.5391-1.0156 4.6562-1.0156h2.3125v-0.3125c0-0.61328-0.24609-1.0625-0.73438-1.3438-0.49219-0.28906-1.25-0.4375-2.2812-0.4375-0.84375 0-1.625 0.085938-2.3438 0.25-0.71875 0.16797-1.3906 0.41797-2.0156 0.75v-2.9844c0.84375-0.20703 1.6875-0.36328 2.5312-0.46875 0.84375-0.10156 1.6875-0.15625 2.5312-0.15625 2.2188 0 3.8164 0.4375 4.7969 1.3125 0.97656 0.86719 1.4688 2.2812 1.4688 4.25z"/>
  </symbol>
  <symbol id="b" overflow="visible">
   <path d="m6.1562-15.734v3.4844h4.0469v2.7969h-4.0469v5.2031c0 0.5625 0.11328 0.94922 0.34375 1.1562 0.22656 0.19922 0.67578 0.29688 1.3438 0.29688h2.0156v2.7969h-3.3594c-1.5547 0-2.6523-0.32031-3.2969-0.96875-0.63672-0.64453-0.95312-1.7383-0.95312-3.2812v-5.2031h-1.9531v-2.7969h1.9531v-3.4844z"/>
  </symbol>
  <symbol id="k" overflow="visible">
   <path d="m10.219-10.453v-6.5781h3.9375v17.031h-3.9375v-1.7656c-0.54297 0.71875-1.1367 1.2461-1.7812 1.5781-0.64844 0.33203-1.3984 0.5-2.25 0.5-1.5117 0-2.7578-0.59766-3.7344-1.7969-0.96875-1.1953-1.4531-2.7383-1.4531-4.625 0-1.8945 0.48438-3.4414 1.4531-4.6406 0.97656-1.1953 2.2227-1.7969 3.7344-1.7969 0.84375 0 1.5859 0.17188 2.2344 0.51562 0.65625 0.33594 1.2539 0.85938 1.7969 1.5781zm-2.5781 7.9219c0.83203 0 1.4688-0.30078 1.9062-0.90625 0.44531-0.61328 0.67188-1.5039 0.67188-2.6719 0-1.1641-0.22656-2.0547-0.67188-2.6719-0.4375-0.61328-1.0742-0.92188-1.9062-0.92188-0.83594 0-1.4766 0.30859-1.9219 0.92188-0.4375 0.61719-0.65625 1.5078-0.65625 2.6719 0 1.168 0.21875 2.0586 0.65625 2.6719 0.44531 0.60547 1.0859 0.90625 1.9219 0.90625z"/>
  </symbol>
  <symbol id="j" overflow="visible">
   <path d="m8.4062-2.5312c0.83203 0 1.4688-0.30078 1.9062-0.90625 0.44531-0.61328 0.67188-1.5039 0.67188-2.6719 0-1.1641-0.22656-2.0547-0.67188-2.6719-0.4375-0.61328-1.0742-0.92188-1.9062-0.92188-0.84375 0-1.4922 0.30859-1.9375 0.92188-0.44922 0.61719-0.67188 1.5078-0.67188 2.6719 0 1.1562 0.22266 2.043 0.67188 2.6562 0.44531 0.61719 1.0938 0.92188 1.9375 0.92188zm-2.6094-7.9219c0.53906-0.71875 1.1406-1.2422 1.7969-1.5781 0.65625-0.34375 1.4102-0.51562 2.2656-0.51562 1.5078 0 2.75 0.60156 3.7188 1.7969 0.96875 1.1992 1.4531 2.7461 1.4531 4.6406 0 1.8867-0.48438 3.4297-1.4531 4.625-0.96875 1.1992-2.2109 1.7969-3.7188 1.7969-0.85547 0-1.6094-0.16797-2.2656-0.5-0.65625-0.34375-1.2578-0.86719-1.7969-1.5781v1.7656h-3.9219v-17.031h3.9219z"/>
  </symbol>
  <symbol id="i" overflow="visible">
   <path d="m0.28125-12.25h3.9062l3.2969 8.3125 2.7969-8.3125h3.9219l-5.1562 13.406c-0.52344 1.3633-1.125 2.3164-1.8125 2.8594-0.6875 0.53906-1.6016 0.8125-2.7344 0.8125h-2.25v-2.5625h1.2188c0.66406 0 1.1484-0.10938 1.4531-0.32812 0.30078-0.21094 0.53516-0.58594 0.70312-1.125l0.10938-0.34375z"/>
  </symbol>
  <symbol id="h" overflow="visible">
   <path d="m6.2656-13.156v9.9688h1.5156c1.7188 0 3.0312-0.42578 3.9375-1.2812 0.90625-0.85156 1.3594-2.0938 1.3594-3.7188 0-1.6133-0.45312-2.8438-1.3594-3.6875-0.89844-0.85156-2.2109-1.2812-3.9375-1.2812zm-4.2031-3.1719h4.4375c2.4766 0 4.3203 0.17969 5.5312 0.53125 1.2188 0.35547 2.2578 0.95312 3.125 1.7969 0.76953 0.73047 1.3359 1.5781 1.7031 2.5469 0.375 0.96094 0.5625 2.0469 0.5625 3.2656 0 1.2422-0.1875 2.3438-0.5625 3.3125-0.36719 0.96094-0.93359 1.8086-1.7031 2.5469-0.875 0.84375-1.9297 1.4453-3.1562 1.7969-1.2188 0.35547-3.0547 0.53125-5.5 0.53125h-4.4375z"/>
  </symbol>
  <symbol id="g" overflow="visible">
   <path d="m1.875-17.031h3.9219v17.031h-3.9219z"/>
  </symbol>
  <symbol id="w" overflow="visible">
   <path d="m11.453-11.875v2.9844c-0.83594-0.35156-1.6406-0.61328-2.4219-0.78125-0.78125-0.17578-1.5234-0.26562-2.2188-0.26562-0.74219 0-1.293 0.09375-1.6562 0.28125-0.36719 0.17969-0.54688 0.46094-0.54688 0.84375 0 0.3125 0.13281 0.55859 0.40625 0.73438 0.28125 0.16797 0.77344 0.28906 1.4844 0.35938l0.6875 0.10938c2.0078 0.25 3.3594 0.66797 4.0469 1.25 0.69531 0.58594 1.0469 1.5 1.0469 2.75 0 1.3047-0.48438 2.2812-1.4531 2.9375-0.96094 0.65625-2.3984 0.98438-4.3125 0.98438-0.80469 0-1.6367-0.0625-2.5-0.1875-0.86719-0.125-1.7578-0.31641-2.6719-0.57812v-2.9688c0.78125 0.375 1.582 0.66406 2.4062 0.85938 0.82031 0.1875 1.6562 0.28125 2.5 0.28125 0.75781 0 1.332-0.10156 1.7188-0.3125 0.39453-0.21875 0.59375-0.53516 0.59375-0.95312 0-0.34375-0.13672-0.59766-0.40625-0.76562-0.27344-0.17578-0.80469-0.3125-1.5938-0.40625l-0.6875-0.09375c-1.7422-0.21875-2.9648-0.625-3.6719-1.2188-0.69922-0.59375-1.0469-1.4883-1.0469-2.6875 0-1.3008 0.44141-2.2656 1.3281-2.8906 0.89453-0.625 2.2656-0.9375 4.1094-0.9375 0.71875 0 1.4727 0.058594 2.2656 0.17188 0.78906 0.10547 1.6562 0.27344 2.5938 0.5z"/>
  </symbol>
  <symbol id="v" overflow="visible">
   <path d="m9.5156-13.578c-1.2812 0-2.2773 0.47656-2.9844 1.4219-0.71094 0.94922-1.0625 2.2812-1.0625 4s0.35156 3.0547 1.0625 4c0.70703 0.94922 1.7031 1.4219 2.9844 1.4219 1.2891 0 2.2891-0.47266 3-1.4219 0.70703-0.94531 1.0625-2.2812 1.0625-4s-0.35547-3.0508-1.0625-4c-0.71094-0.94531-1.7109-1.4219-3-1.4219zm0-3.0469c2.625 0 4.6797 0.75 6.1719 2.25 1.4883 1.5 2.2344 3.5742 2.2344 6.2188 0 2.6484-0.74609 4.7188-2.2344 6.2188-1.4922 1.5-3.5469 2.25-6.1719 2.25-2.6172 0-4.6719-0.75-6.1719-2.25-1.4922-1.5-2.2344-3.5703-2.2344-6.2188 0-2.6445 0.74219-4.7188 2.2344-6.2188 1.5-1.5 3.5547-2.25 6.1719-2.25z"/>
  </symbol>
  <symbol id="f" overflow="visible">
   <path d="m1.875-12.25h3.9219v12.25h-3.9219zm0-4.7812h3.9219v3.2031h-3.9219z"/>
  </symbol>
  <symbol id="u" overflow="visible">
   <path d="m0.34375-12.25h3.9062l3.0625 8.4688 3.0312-8.4688h3.9375l-4.8281 12.25h-4.2969z"/>
  </symbol>
  <symbol id="t" overflow="visible">
   <path d="m9.9375-17.031v2.5781h-2.1562c-0.55469 0-0.9375 0.10547-1.1562 0.3125-0.21875 0.19922-0.32812 0.54297-0.32812 1.0312v0.85938h3.3438v2.7969h-3.3438v9.4531h-3.9219v-9.4531h-1.9531v-2.7969h1.9531v-0.85938c0-1.332 0.36719-2.3164 1.1094-2.9531 0.75-0.64453 1.9062-0.96875 3.4688-0.96875z"/>
  </symbol>
  <symbol id="e" overflow="visible">
   <path d="m7.7188-9.75c-0.875 0-1.543 0.3125-2 0.9375-0.44922 0.625-0.67188 1.5273-0.67188 2.7031 0 1.168 0.22266 2.0625 0.67188 2.6875 0.45703 0.625 1.125 0.9375 2 0.9375 0.85156 0 1.5039-0.3125 1.9531-0.9375 0.44531-0.625 0.67188-1.5195 0.67188-2.6875 0-1.1758-0.22656-2.0781-0.67188-2.7031-0.44922-0.625-1.1016-0.9375-1.9531-0.9375zm0-2.7969c2.1016 0 3.75 0.57031 4.9375 1.7031 1.1875 1.1367 1.7812 2.7148 1.7812 4.7344 0 2.0117-0.59375 3.5859-1.7812 4.7188-1.1875 1.1367-2.8359 1.7031-4.9375 1.7031-2.1172 0-3.7734-0.56641-4.9688-1.7031-1.1875-1.1328-1.7812-2.707-1.7812-4.7188 0-2.0195 0.59375-3.5977 1.7812-4.7344 1.1953-1.1328 2.8516-1.7031 4.9688-1.7031z"/>
  </symbol>
  <symbol id="s" overflow="visible">
   <path d="m13.234-10.219c0.5-0.75781 1.0859-1.3359 1.7656-1.7344 0.6875-0.39453 1.4375-0.59375 2.25-0.59375 1.4062 0 2.4766 0.4375 3.2188 1.3125 0.73828 0.86719 1.1094 2.1211 1.1094 3.7656v7.4688h-3.9375v-6.3906-0.29688c0.007813-0.10156 0.015625-0.25 0.015625-0.4375 0-0.86328-0.13281-1.4883-0.39062-1.875-0.25-0.39453-0.66406-0.59375-1.2344-0.59375-0.74219 0-1.3125 0.30859-1.7188 0.92188-0.40625 0.61719-0.61719 1.5-0.625 2.6562v6.0156h-3.9375v-6.3906c0-1.3516-0.12109-2.2227-0.35938-2.6094-0.23047-0.39453-0.64062-0.59375-1.2344-0.59375-0.75 0-1.3359 0.30859-1.75 0.92188-0.40625 0.61719-0.60938 1.4961-0.60938 2.6406v6.0312h-3.9375v-12.25h3.9375v1.7969c0.47656-0.69531 1.0312-1.2188 1.6562-1.5625 0.625-0.35156 1.3125-0.53125 2.0625-0.53125 0.84375 0 1.5859 0.20312 2.2344 0.60938 0.65625 0.40625 1.1484 0.98047 1.4844 1.7188z"/>
  </symbol>
  <symbol id="r" overflow="visible">
   <path d="m14.203-7.4688v7.4688h-3.9375v-5.6875c0-1.0703-0.027344-1.8047-0.078125-2.2031-0.042969-0.40625-0.125-0.70312-0.25-0.89062-0.14844-0.25781-0.35547-0.45703-0.625-0.59375-0.26172-0.14453-0.55859-0.21875-0.89062-0.21875-0.8125 0-1.4531 0.32031-1.9219 0.95312-0.46875 0.625-0.70312 1.4961-0.70312 2.6094v6.0312h-3.9219v-17.031h3.9219v6.5781c0.59375-0.71875 1.2188-1.2422 1.875-1.5781 0.66406-0.34375 1.3984-0.51562 2.2031-0.51562 1.4141 0 2.4883 0.4375 3.2188 1.3125 0.73828 0.86719 1.1094 2.1211 1.1094 3.7656z"/>
  </symbol>
  <symbol id="q" overflow="visible">
   <path d="m2.0625-16.328h4.7031l5.9375 11.203v-11.203h3.9844v16.328h-4.7031l-5.9375-11.203v11.203h-3.9844z"/>
  </symbol>
  <symbol id="p" overflow="visible">
   <path d="m1.75-4.7656v-7.4844h3.9375v1.2188c0 0.66797-0.007812 1.5-0.015625 2.5v2.0156c0 0.98047 0.023437 1.6875 0.078125 2.125 0.050781 0.4375 0.13281 0.75 0.25 0.9375 0.16406 0.26172 0.37891 0.46484 0.64062 0.60938 0.25781 0.13672 0.55469 0.20312 0.89062 0.20312 0.8125 0 1.4531-0.3125 1.9219-0.9375 0.46875-0.63281 0.70312-1.5078 0.70312-2.625v-6.0469h3.9062v12.25h-3.9062v-1.7656c-0.59375 0.71094-1.2266 1.2344-1.8906 1.5781-0.65625 0.33203-1.3828 0.5-2.1719 0.5-1.418 0-2.4961-0.42969-3.2344-1.2969-0.74219-0.86328-1.1094-2.125-1.1094-3.7812z"/>
  </symbol>
  <symbol id="o" overflow="visible">
   <path d="m14.203-7.4688v7.4688h-3.9375v-5.7188c0-1.0508-0.027344-1.7734-0.078125-2.1719-0.042969-0.40625-0.125-0.70312-0.25-0.89062-0.14844-0.25781-0.35547-0.45703-0.625-0.59375-0.26172-0.14453-0.55859-0.21875-0.89062-0.21875-0.8125 0-1.4531 0.32031-1.9219 0.95312-0.46875 0.625-0.70312 1.4961-0.70312 2.6094v6.0312h-3.9219v-12.25h3.9219v1.7969c0.59375-0.71875 1.2188-1.2422 1.875-1.5781 0.66406-0.34375 1.3984-0.51562 2.2031-0.51562 1.4141 0 2.4883 0.4375 3.2188 1.3125 0.73828 0.86719 1.1094 2.1211 1.1094 3.7656z"/>
  </symbol>
  <symbol id="n" overflow="visible">
   <path d="m2.0625-16.328h6.9844c2.082 0 3.6758 0.46484 4.7812 1.3906 1.1133 0.91797 1.6719 2.2305 1.6719 3.9375 0 1.7109-0.55859 3.0273-1.6719 3.9531-1.1055 0.91797-2.6992 1.375-4.7812 1.375h-2.7812v5.6719h-4.2031zm4.2031 3.0469v4.5625h2.3281c0.82031 0 1.4531-0.19531 1.8906-0.59375 0.44531-0.39453 0.67188-0.95703 0.67188-1.6875 0-0.72656-0.22656-1.2891-0.67188-1.6875-0.4375-0.39453-1.0703-0.59375-1.8906-0.59375z"/>
  </symbol>
  <symbol id="m" overflow="visible">
   <path d="m1.875-12.25h3.9219v12.031c0 1.6445-0.39844 2.8945-1.1875 3.75-0.78125 0.86328-1.9219 1.2969-3.4219 1.2969h-1.9375v-2.5625h0.6875c0.73828 0 1.2422-0.16797 1.5156-0.5 0.28125-0.33594 0.42188-0.99609 0.42188-1.9844zm0-4.7812h3.9219v3.2031h-3.9219z"/>
  </symbol>
  <symbol id="l" overflow="visible">
   <path d="m11.781-11.875v3.2031c-0.53125-0.36328-1.0703-0.63281-1.6094-0.8125-0.53125-0.17578-1.0859-0.26562-1.6562-0.26562-1.0938 0-1.9492 0.32422-2.5625 0.96875-0.60547 0.63672-0.90625 1.5273-0.90625 2.6719 0 1.1484 0.30078 2.0391 0.90625 2.6719 0.61328 0.63672 1.4688 0.95312 2.5625 0.95312 0.61328 0 1.1914-0.085937 1.7344-0.26562 0.55078-0.1875 1.0625-0.45703 1.5312-0.8125v3.2031c-0.61719 0.23047-1.2422 0.39453-1.875 0.5-0.625 0.11328-1.2578 0.17188-1.8906 0.17188-2.2109 0-3.9375-0.5625-5.1875-1.6875-1.2422-1.1328-1.8594-2.7109-1.8594-4.7344 0-2.0195 0.61719-3.5977 1.8594-4.7344 1.25-1.1328 2.9766-1.7031 5.1875-1.7031 0.64453 0 1.2812 0.058594 1.9062 0.17188 0.625 0.11719 1.2422 0.28125 1.8594 0.5z"/>
  </symbol>
 </defs>
 <g>
  <path d="m443.18 317.18c-8.9609-0.44922-15.68 6.2734-15.23 15.23 0.44922 7.168 6.2734 12.992 13.441 13.441 8.9609 0.44922 15.68-6.2734 15.23-15.23-0.44922-7.168-6.2734-12.992-13.441-13.441z"/>
  <path d="m264.88 317.18c-8.0625 0-14.336 6.2734-14.336 14.336s6.2734 14.336 14.336 14.336 14.336-6.2734 14.336-14.336c0-7.6172-6.2695-14.336-14.336-14.336z"/>
  <path d="m548.91 87.359c-6.7188-8.0625-19.266-17.473-41.215-15.68h-0.89453c-0.89453 0-2.2383 0-3.1367 0.44922-5.375 0.89453-10.754 2.2383-16.129 4.9297-31.809 13.887-60.031 52.863-83.773 115.58-13.441-2.6875-33.152-4.9297-51.07-4.4805-12.543 0.44922-34.496 1.793-49.727 4.4805-23.742-62.719-51.969-101.7-84.223-116.03-6.7188-3.1367-13.441-4.9297-20.16-5.375-21.953-1.793-34.496 7.6172-41.215 15.68-21.055 25.984-12.992 73.473-9.8555 83.777 0.89453 3.5859 4.4805 19.711 16.574 94.078l0.44922 2.2383c1.3438 8.0625 3.5859 13.887 9.8555 19.711 3.1367 2.6875 6.7188 3.5859 12.098 4.9297 7.168 2.2383 17.023 4.9297 21.953 10.754 5.8242 6.7188 5.375 31.359 5.375 34.047 0.44922 19.711 0.89453 65.406 38.527 115.59 1.793 2.2383 3.1367 4.9297 4.4805 8.0625 0.44922 0.44922 0.44922 0.89453 0.89453 1.3438-5.375 7.168-7.168 14.336-7.168 21.055 0 34.496 26.434 45.695 104.83 45.695 77.504 0 104.83-12.098 104.83-45.695 0-8.9609-3.5859-16.574-9.8555-22.848 0 0 0-0.44922 0.44922-0.44922 1.3438-2.2383 2.6875-4.4805 4.0312-6.7188 37.184-49.727 38.078-95.871 38.527-115.59 0-2.6875 1.793-27.777 5.375-34.047 4.9297-5.8242 14.785-8.9609 21.953-10.754 5.375-1.3438 8.9609-2.6875 12.098-5.375 6.7188-5.8242 8.0625-10.305 9.8555-19.266 0.44922-1.793 1.3438-7.6172 3.5859-20.609 3.5859-23.742 10.754-67.648 13.441-76.16 2.2266-9.8516 10.293-57.789-10.766-83.324zm-342.27 178.75c-0.44922 0-0.89453 0.44922-0.89453 0.44922-4.4805 1.793-9.4062 1.3438-13.441-0.89453-4.4805-2.6875-7.6172-8.0625-8.0625-13.887 0-0.89453-0.44922-1.3438-0.44922-2.2383 0-0.44922 0-0.44922-0.44922-0.89453v-0.44922c-5.8242-35.391-12.098-73.922-14.785-83.328-2.6875-8.9609-7.6172-47.039 5.8242-64.062 3.1367-4.0312 8.9609-8.9609 22.398-7.6172 2.2383 0 4.4805 0.44922 6.7188 1.3438 5.375 4.0312 15.23 16.129 30.465 53.762 0.44922 0.89453 3.5859 10.754 4.9297 16.574 4.0312 17.023 7.168 42.113 4.0312 53.762-0.44922 2.2383-1.3438 4.0312-2.2383 5.375s-2.2383 2.6875-3.1367 4.0312c-3.1367 4.0312-6.2734 8.5117-9.8555 13.441-6.2695 8.0547-15.68 21.496-21.055 24.633zm148.29 240.57c-37.633 0-62.719-3.1367-74.816-8.9609-6.7188-3.5859-8.0625-6.7188-8.0625-14.785 0-0.89453 0-1.793 0.44922-3.1367 3.1367 1.793 6.2734 3.1367 10.305 4.0312 1.3438 0.44922 3.1367 0.44922 4.4805 0.44922 3.1367 0 6.2734-0.89453 8.9609-2.2383 13.441 10.305 23.742 12.098 31.359 10.305 7.6172 5.8242 17.922 7.6172 22.848 8.0625h5.375c4.4805-0.44922 14.785-2.2383 22.848-8.0625 7.168 1.793 17.023 0 29.121-8.9609 0.89453-0.44922 1.3438-0.89453 2.2383-1.3438 4.0312 1.793 8.0625 2.6875 12.992 1.793 5.375-1.3438 9.4062-3.1367 12.992-5.375 0.89453 1.793 1.793 3.1367 1.793 4.9297-0.003906 8.957-0.003906 23.293-82.883 23.293zm-41.664-39.422c8.9609-10.305 19.266-21.504 38.078-21.504h1.793 1.793c18.367 0 29.121 11.199 38.078 21.504-6.2734 4.0312-9.8555 4.4805-10.754 3.5859-2.6875-1.793-5.8242-2.6875-8.5117-1.793-3.1367 0.44922-5.8242 2.6875-7.168 5.375-0.89453 1.793-7.168 4.0312-13.441 4.9297-5.8242-0.89453-12.098-3.1367-13.441-4.9297-1.3438-2.6875-4.0312-4.4805-7.168-5.375-3.1367-0.44922-6.2734 0-8.5117 1.793-0.89062 0.44531-4.4766 0.44531-10.746-3.5859zm164.86-179.2c-10.305 12.098-9.4062 48.832-8.5117 62.273v8.5117c-2.2383 20.609-9.4062 49.727-33.152 80.641-2.6875 3.5859-4.9297 7.6172-6.7188 10.754-4.0312 7.6172-5.375 10.305-11.648 11.648-1.793-0.89453-6.2734-5.8242-8.9609-8.9609-9.4062-10.754-23.297-25.984-47.039-29.121l-0.44922-18.367c13.887-2.6875 23.742-12.098 23.742-23.297 0-13.441-14.336-18.367-32.703-18.367-17.922 0-32.703 4.9297-32.703 18.367 0 10.754 9.8555 20.16 22.848 22.848l0.44922 18.367c-24.641 2.6875-38.527 18.367-48.383 29.121-2.6875 3.1367-7.168 7.6172-8.9609 8.9609-5.8242-1.3438-7.6172-4.0312-11.648-11.648-1.793-3.1367-3.5859-7.168-6.7188-10.754-33.156-44.352-34.051-83.773-34.051-103.04 0-5.375 2.6875-33.602-9.8555-47.938-2.6875-3.1367-5.8242-5.8242-8.9609-7.6172 0.44922 0 0.44922-0.44922 0.89453-0.44922 0.44922-0.44922 1.3438-0.89453 1.793-1.3438 0.44922-0.44922 0.89453-0.89453 1.793-1.3438 0.89453-0.44922 1.3438-1.3438 2.2383-1.793l3.582-3.582c0.44922-0.44922 0.89453-0.89453 1.3438-1.793 0.89453-0.89453 1.793-1.793 2.2383-2.6875 0.44922-0.44922 0.89453-0.89453 1.3438-1.793 0.89453-1.3438 1.793-2.2383 2.6875-3.5859 0.44922-0.44922 0.44922-0.89453 0.89453-1.3438 2.6875-3.1367 4.9297-6.7188 7.6172-10.305 4.4805-5.8242 8.5117-11.648 12.098-16.129 21.055-23.297-4.9297-95.871-4.9297-96.77-0.44922-0.89453-3.1367-7.6172-3.5859-8.9609 0-0.44922-0.44922-0.89453-0.44922-1.3438 0-0.44922 0-0.44922-0.44922-0.89453 12.992 17.473 26.879 43.008 40.77 81.535l0.44922 0.44922c1.793 5.375 8.0625 8.5117 13.441 6.7188 7.6172-2.6875 30.91-5.375 53.762-5.8242 19.711-0.44922 43.902 2.6875 53.762 5.8242 5.375 1.793 11.648-0.89453 13.441-6.7188l0.44922-0.44922c11.648-32.703 23.297-56 34.496-73.023-0.44922 1.3438-0.89453 2.2383-1.3438 3.5859-0.44922 1.3438-0.89453 2.2383-1.3438 2.6875-3.1367 6.7266-7.6172 25.094-9.4062 42.117-3.1367 25.09-0.89453 42.113 6.7188 51.07 3.5859 4.4805 8.0625 9.8555 12.543 16.129 8.5117 11.199 16.574 22.398 24.641 28.672-2.2383 3.1367-5.375 5.8281-8.0625 8.9609zm55.102-124.54c-2.6875 8.9609-8.0625 43.902-13.441 78.848-1.3438 9.4062-2.6875 18.367-3.1367 19.711 0 0.44922 0 0.89453-0.44922 1.3438-0.44922 0-0.44922 0.44922-0.89453 0.44922-4.0312 2.2383-8.5117 2.6875-13.441 0.89453-4.9297-1.793-15.68-16.574-22.398-25.535-4.9297-6.2734-8.9609-12.543-13.441-17.473-1.793-2.2383-4.4805-12.098-1.793-34.047 2.2383-16.574 6.2734-32.258 8.0625-36.734 0.44922-0.89453 0.89453-1.793 1.3438-3.1367 18.816-45.695 30.016-53.312 33.602-54.656 0.89453 0 1.3438 0 2.2383-0.44922 6.7188-0.44922 11.648 0.44922 15.23 1.793 0.89453 0.44922 1.3438 1.3438 2.2383 2.2383 13.898 17.473 8.9727 57.348 6.2812 66.754z"/>
  <use x="126" y="627.199219" xlink:href="#x"/>
  <use x="142.4375" y="627.199219" xlink:href="#c"/>
  <use x="153.484375" y="627.199219" xlink:href="#a"/>
  <use x="168.679688" y="627.199219" xlink:href="#d"/>
  <use x="183.792969" y="627.199219" xlink:href="#b"/>
  <use x="194.5" y="627.199219" xlink:href="#a"/>
  <use x="209.695312" y="627.199219" xlink:href="#k"/>
  <use x="233.527344" y="627.199219" xlink:href="#j"/>
  <use x="249.5625" y="627.199219" xlink:href="#i"/>
  <use x="271.960938" y="627.199219" xlink:href="#h"/>
  <use x="290.554688" y="627.199219" xlink:href="#a"/>
  <use x="305.746094" y="627.199219" xlink:href="#g"/>
  <use x="313.425781" y="627.199219" xlink:href="#w"/>
  <use x="326.757812" y="627.199219" xlink:href="#d"/>
  <use x="341.875" y="627.199219" xlink:href="#c"/>
  <use x="352.921875" y="627.199219" xlink:href="#b"/>
  <use x="371.425781" y="627.199219" xlink:href="#v"/>
  <use x="390.46875" y="627.199219" xlink:href="#g"/>
  <use x="398.148438" y="627.199219" xlink:href="#f"/>
  <use x="405.824219" y="627.199219" xlink:href="#u"/>
  <use x="420.425781" y="627.199219" xlink:href="#f"/>
  <use x="428.105469" y="627.199219" xlink:href="#d"/>
  <use x="126" y="649.601562" xlink:href="#t"/>
  <use x="135.746094" y="649.601562" xlink:href="#c"/>
  <use x="146.792969" y="649.601562" xlink:href="#e"/>
  <use x="162.179688" y="649.601562" xlink:href="#s"/>
  <use x="193.320312" y="649.601562" xlink:href="#b"/>
  <use x="204.027344" y="649.601562" xlink:href="#r"/>
  <use x="219.976562" y="649.601562" xlink:href="#a"/>
  <use x="242.964844" y="649.601562" xlink:href="#q"/>
  <use x="261.710938" y="649.601562" xlink:href="#e"/>
  <use x="277.101562" y="649.601562" xlink:href="#p"/>
  <use x="293.046875" y="649.601562" xlink:href="#o"/>
  <use x="316.792969" y="649.601562" xlink:href="#n"/>
  <use x="333.210938" y="649.601562" xlink:href="#c"/>
  <use x="344.257812" y="649.601562" xlink:href="#e"/>
  <use x="359.648438" y="649.601562" xlink:href="#m"/>
  <use x="367.324219" y="649.601562" xlink:href="#a"/>
  <use x="382.515625" y="649.601562" xlink:href="#l"/>
  <use x="395.796875" y="649.601562" xlink:href="#b"/>
 </g>
</svg>
